<?xml version="1.0" standalone="no"?>
<!DOCTYPE svg PUBLIC "-//W3C//DTD SVG 20010904//EN"
 "http://www.w3.org/TR/2001/REC-SVG-20010904/DTD/svg10.dtd">
<svg version="1.0" xmlns="http://www.w3.org/2000/svg"
 width="700.000000pt" height="700.000000pt" viewBox="0 0 700.000000 700.000000"
 preserveAspectRatio="xMidYMid meet">
<metadata>
Created by potrace 1.11, written by Peter Selinger 2001-2013
</metadata>
<g transform="translate(0.000000,700.000000) scale(0.100000,-0.100000)"
fill="#000000" stroke="none">
<path d="M3598 5966 c-1 -2 -122 -6 -268 -10 -146 -3 -276 -8 -290 -10 -14 -3
-54 -7 -90 -10 -36 -3 -94 -8 -130 -11 -36 -3 -78 -8 -95 -10 -16 -2 -66 -7
-110 -11 -44 -4 -83 -9 -87 -10 -5 -1 -21 -2 -37 -3 l-30 -1 0 -334 c0 -253 3
-335 12 -338 7 -2 487 -4 1067 -3 l1055 1 0 339 0 339 -40 7 c-22 4 -76 10
-120 13 -44 4 -87 9 -95 11 -8 2 -62 7 -120 10 -58 3 -123 8 -145 10 -22 2
-132 7 -245 10 -113 3 -210 8 -217 10 -6 2 -13 2 -15 1z"/>
<path d="M4854 5542 c0 -174 3 -319 7 -322 4 -3 294 -5 646 -5 l638 1 3 124
c4 146 -6 188 -47 213 -107 63 -908 262 -1212 301 l-35 5 0 -317z"/>
<path d="M2130 5835 c-30 -7 -98 -20 -150 -30 -122 -22 -104 -18 -260 -55
-118 -28 -376 -98 -595 -163 -86 -25 -134 -68 -136 -118 -3 -100 -4 -235 -2
-244 2 -7 211 -10 611 -10 l607 0 1 316 c1 222 -2 316 -10 316 -6 0 -36 -6
-66 -12z"/>
<path d="M986 4664 c1 -162 4 -297 7 -300 3 -4 557 -6 1133 -4 l81 0 1 300 0
300 -611 0 -612 0 1 -296z"/>
<path d="M2467 4953 c-3 -5 -5 -140 -5 -300 l0 -293 72 0 c89 -1 1883 -1 1988
0 l77 0 0 300 -1 300 -1063 0 c-585 0 -1066 -3 -1068 -7z"/>
<path d="M4854 4666 c1 -162 4 -297 7 -301 5 -4 648 -8 1199 -5 l95 0 -3 300
-3 300 -647 0 -648 0 0 -294z"/>
<path d="M989 4090 c-1 -16 -1 -531 0 -568 l1 -22 608 2 607 3 1 298 c1 163
-1 298 -5 298 -3 1 -277 2 -608 3 -531 1 -603 -1 -604 -14z"/>
<path d="M2470 4100 c-4 -3 -8 -139 -7 -302 l0 -298 1068 1 1067 0 1 299 c0
228 -3 300 -12 301 -44 4 -2110 3 -2117 -1z"/>
<path d="M4861 4095 c-5 -5 -8 -140 -7 -300 l1 -290 648 -1 647 -2 0 299 c0
164 -3 300 -7 300 -5 1 -293 2 -641 3 -413 1 -636 -2 -641 -9z"/>
<path d="M639 3725 c-59 -32 -63 -51 -65 -274 -2 -218 -2 -220 -54 -222 -14 0
-47 -8 -75 -17 -171 -58 -302 -187 -333 -329 -4 -21 -8 -127 -7 -236 1 -181 3
-199 21 -225 29 -38 80 -61 118 -52 98 22 109 49 112 270 1 96 2 183 3 192 2
29 71 98 124 123 27 13 70 27 95 31 55 8 390 12 401 4 4 -3 7 -66 6 -140 0
-74 1 -139 2 -145 2 -7 214 -10 611 -10 l607 0 1 277 1 277 -681 0 c-374 0
-685 0 -691 1 -6 0 -10 69 -10 188 1 103 -1 197 -3 210 -3 13 -20 38 -38 56
-26 25 -43 33 -76 34 -24 1 -55 -5 -69 -13z"/>
<path d="M2463 2972 l2 -277 1065 0 1065 0 2 277 2 276 -1069 0 -1070 0 3
-276z"/>
<path d="M4858 3237 c-3 -7 -4 -131 -4 -277 l1 -265 635 0 c349 -1 641 1 648
3 9 3 12 68 12 278 l0 273 -644 0 c-492 0 -645 -3 -648 -12z"/>
<path d="M1105 2442 c-60 -1 -112 -7 -115 -11 -5 -8 -5 -41 -1 -217 2 -115 -3
-113 584 -274 l37 -11 0 -394 c0 -446 0 -449 71 -480 75 -34 161 8 177 86 4
19 7 190 7 382 -1 191 2 347 5 347 4 0 76 -13 161 -30 85 -16 159 -30 166 -30
8 0 11 83 11 315 l-1 315 -251 0 c-138 0 -361 2 -496 3 -135 1 -294 1 -355 -1z"/>
<path d="M4955 2440 l-100 -5 0 -320 c0 -278 2 -320 15 -318 8 1 101 18 207
38 105 19 193 35 195 35 2 0 3 -165 3 -368 1 -338 2 -369 19 -398 23 -39 51
-56 97 -61 60 -7 123 37 134 94 2 10 4 192 4 404 l1 387 73 20 c272 76 467
137 494 153 45 28 56 72 55 212 0 66 -2 121 -5 123 -6 6 -1080 10 -1192 4z"/>
<path d="M2461 2105 c0 -250 3 -335 12 -336 7 0 21 -2 32 -4 11 -2 47 -7 80
-10 33 -3 71 -8 85 -10 27 -5 82 -11 200 -21 41 -3 89 -8 105 -9 234 -23 879
-24 1165 -1 19 2 76 6 125 10 50 4 101 9 115 11 14 2 52 6 85 10 33 3 77 8 97
11 l38 6 0 339 0 339 -1070 0 -1069 0 0 -335z"/>
</g>
</svg>
