<svg id="Calque_1" data-name="Calque 1" xmlns="http://www.w3.org/2000/svg" viewBox="0 0 1729.09 1407.35">
  <defs>
    <style>
      .cls-1 {
        fill: #fff;
      }
    </style>
  </defs>
  <title>MyCellar Logo</title>
  <path class="cls-1" d="M1728.48,1010.59v62.2c0,18-9.86,31.43-27.26,36.55-49.95,14.68-100,29.18-150.91,44v215.2c0,16.43-8.46,29.85-22.15,35.42-23.87,9.73-48.78-6.26-50.23-32.26-.11-1.91-.08-3.83-.08-5.74V1169.2l-120.38,22.05V1006.38H1728.3C1728.34,1007.82,1728.48,1009.22,1728.48,1010.59Z"/>
  <path class="cls-1" d="M1728.07,142.68c1,23.38.25,46.83.25,70.62h-371V29.68c7.89,1.11,15.56,2,23.18,3.27,109.6,17.88,217.06,44.61,322.79,78.38C1718.21,116.09,1727.4,127.12,1728.07,142.68Z"/>
  <path class="cls-1" d="M1728.28,286.59V458.26H1357.34V286.59Z"/>
  <path class="cls-1" d="M1728.17,775.77V933.48H1357.31V775.77Z"/>
  <path class="cls-1" d="M1728.13,531.07v172H1357.38v-172Z"/>
  <path class="cls-1" d="M1284.86,22.54q-.11,94-.06,188c0,.78-.13,1.57-.23,2.7H673.83V21.87c9.15-1.23,18.24-2.68,27.38-3.58,44.57-4.4,89.12-9.21,133.74-12.79q45.29-3.65,90.78-4.33c44.47-.71,89-1.11,133.44.13,42.06,1.19,84.1,4.12,126.07,7.27C1217.17,11,1249,15,1280.85,18.12,1283.93,18.44,1284.86,19.51,1284.86,22.54Z"/>
  <path class="cls-1" d="M1284.5,1006.44V1201c-203.73,25.58-407,25.42-610.51-3v-191.6Z"/>
  <path class="cls-1" d="M1284.44,775.81V933.5H674V775.81Z"/>
  <path class="cls-1" d="M1284.39,531.22V703.16H674.1V531.22Z"/>
  <path class="cls-1" d="M1284.33,286.38V458.24H674V286.38Z"/>
  <path class="cls-1" d="M601.26,775.73V933.48H252.39V848.54c-2-.11-3.56-.25-5.11-.25h-89c-21.63,0-42.23,4.29-60.53,16.22A90.08,90.08,0,0,0,81,879.27c-6.49,7-9.07,15.77-9,25.5.19,28.24.13,56.48.06,84.69-.08,18.68-9.82,32-26.65,36.95a35.8,35.8,0,0,1-44-23.89,24.42,24.42,0,0,1-.77-6.59c0-33.18.25-66.35-.15-99.53-.17-14.66,3.6-28.1,10.13-40.82,15.87-31,41.52-51.12,72.9-64.59a167.89,167.89,0,0,1,47.38-12.67c4-.46,3.47-2.81,3.47-5.36V670.56a36,36,0,1,1,72-.65h0c.4,30.13.11,60.29.13,90.44v15.39Z"/>
  <path class="cls-1" d="M601.26,531.09V703.14H252.62V531.09Z"/>
  <path class="cls-1" d="M601.18,286.36V458.22H252.7V286.36Z"/>
  <path class="cls-1" d="M601.16,1006.36v181.16c-32.7-6.3-65.15-12.52-98.19-18.88v199.22c0,16.08-6.24,28.68-21.19,35.53-24.24,11.08-50.58-5.78-51.27-32.45V1152.15c-25.1-6.68-49.81-12.86-74.32-19.83q-39.71-11.31-79.1-23.83c-14.43-4.58-23.55-15.24-24.26-30.13-1.15-23.85-.31-47.78-.31-72Z"/>
  <path class="cls-1" d="M601.14,33.07v180.4H252.35v-67.4c0-16.27,9.82-30.34,25.5-34.86,49.56-14.24,99.05-28.83,148.94-42C482.56,54.56,539.19,43.48,596,33.68,597.56,33.43,599.15,33.31,601.14,33.07Z"/>
</svg>
