<svg id="Calque_1" data-name="Calque 1" xmlns="http://www.w3.org/2000/svg" viewBox="0 0 462.05 449.23">
  <defs>
    <style>
      .cls-1 {
        fill: #fff;
      }
    </style>
  </defs>
  <title>BarrelsLogo</title>
  <g>
    <path class="cls-1" d="M62.46,429.91v-3.78q0-46.42-.05-92.85a9.56,9.56,0,0,0-1.27-4.72A198.27,198.27,0,0,1,32.36,214.31a198.55,198.55,0,0,1,33-99.36A201.74,201.74,0,0,1,98,77.17,195.72,195.72,0,0,1,151,42.82c15.54-6.82,31.64-12.05,48.6-14.17,7.12-.89,14.23-1.87,21.56-2.83V19.26c-1.75,0-3.42,0-5.08,0-5.46.13-10.33-4.15-10.58-9.32S209.83.12,215.4.07C225.68,0,236,0,246.26,0a10.14,10.14,0,0,1,9.42,5.87c1.77,3.34.87,6.41-1.12,9.2A10,10,0,0,1,246,19.33h-5.22v6.56c6.49.73,13,1.27,19.45,2.23A196,196,0,0,1,329.6,52.26a199.89,199.89,0,0,1,96.74,134.95,196.52,196.52,0,0,1,3.37,47A199.22,199.22,0,0,1,407.45,317a89.37,89.37,0,0,1-5.45,9.49,13.33,13.33,0,0,0-2.27,8q.11,44.56,0,89.12c0,2,0,4,0,6.34h6c15.15,0,30.29,0,45.44,0,4.3,0,7.67,1.64,9.68,5.42,3.22,6.05-.91,13.14-8,13.81-1.89.18-3.82.07-5.73.07l-198.92,0-235.84,0c-3.77,0-7.51-.19-10.09-3.44s-3.2-6.65-1.29-10.35a9.61,9.61,0,0,1,9-5.48c16.09-.05,32.19,0,48.28,0ZM51,224.8c-.57,98.61,81.08,183.5,186.23,180.26,93.17-2.87,175.36-80,173.68-183.49-1.57-96.67-80-175.9-178.74-176.63C132,44.2,50.88,125.67,51,224.8Zm87.79,176.65c0,8.67,0,16.48,0,24.28,0,4.56,0,4.55,4.42,4.55l109.73,0H318.5c4.72,0,4.71,0,4.71-4.57,0-6.79,0-13.57,0-20.36,0-1-.09-2-.17-3.91-29.35,15-59.85,22.56-92.24,22.56S168,416.05,138.83,401.45ZM119.17,430a7.17,7.17,0,0,0,.28-1.24c0-12.41.08-24.82,0-37.23a4.38,4.38,0,0,0-1.72-3,214.59,214.59,0,0,1-33.14-29c-.76-.8-1.64-1.49-3-2.71a30,30,0,0,0-.46,3.39c0,22.28,0,44.55,0,66.83,0,2.43.63,3.31,3.23,3.27,10.5-.15,21-.05,31.51-.07C117,430.21,118.1,430,119.17,430Zm261.11-72.63a26.46,26.46,0,0,0-2.81,2.22,219.47,219.47,0,0,1-33.61,29.37,4.87,4.87,0,0,0-1.51,3.47c-.14,6.78-.07,13.56-.07,20.34,0,5.68,0,11.36,0,17.16h38Z"/>
    <path class="cls-1" d="M231.31,384.68a148.45,148.45,0,0,1-56.82-10C163,370.34,152,365,142,357.88,125.18,345.74,110,331.94,98.4,314.33a165.06,165.06,0,0,1-20.86-44.23A159.42,159.42,0,0,1,72,208.19a154,154,0,0,1,12.82-47.94c4-8.77,9.24-17,14.57-25.08a245.91,245.91,0,0,1,15.49-20.28,64.23,64.23,0,0,1,8.75-8.27c5.09-4.23,10.22-8.44,15.58-12.31a151.2,151.2,0,0,1,30.58-17.12,159.64,159.64,0,0,1,60.6-12.3,156.71,156.71,0,0,1,53.9,9.24,166.72,166.72,0,0,1,39.24,20.33c10,6.88,18.35,15.46,26.53,24.24,17.11,18.37,28.54,39.9,35.29,64a158.42,158.42,0,0,1-4.21,97.73,149,149,0,0,1-20.84,38.64c-4.1,5.42-9.25,10-13.58,15.31-5.71,7-12.56,12.68-19.48,18.23a142.89,142.89,0,0,1-41.46,22.82,154.53,154.53,0,0,1-42.67,9.22C239.15,384.89,235.22,384.68,231.31,384.68ZM270.79,89.77c-.08,1.64-.16,2.58-.16,3.51q0,78.74.07,157.47a7.79,7.79,0,0,0,1.81,4.75,54.66,54.66,0,0,1,12.86,24.17c4.52,19.34.11,36.45-12.87,51.47a8.19,8.19,0,0,0-1.8,4.78c-.19,7-.09,14-.08,21,0,1,.11,2,.19,3.23a23.35,23.35,0,0,0,2.54-.46A151.93,151.93,0,0,0,309,342.77a6.17,6.17,0,0,0,3.15-5.94q-.13-111.51-.07-223a6.09,6.09,0,0,0-.06-2.21c-.53-1.26-1-2.83-2.06-3.54a141.41,141.41,0,0,0-33.94-16.91C274.5,90.6,272.85,90.3,270.79,89.77Zm-79.34,271c0-9.56,0-18.13-.05-26.7a4.4,4.4,0,0,0-1.14-2.14c-1.69-2.28-3.51-4.46-5.15-6.78-10.45-14.77-12.47-30.93-7.74-48.14,2.26-8.22,6.87-15.13,12.17-21.67a8.11,8.11,0,0,0,1.83-4.66q.14-78.9.07-157.8c0-1-.14-2-.22-3.11-.85.17-1.26.22-1.66.34-12.28,3.6-23.54,9.35-34.5,15.85-3.82,2.27-5.16,4.85-5.15,9.36q.25,100.06.11,200.12c0,7.63-.16,15.26-.11,22.88,0,1.07.54,2.67,1.34,3.12,8.07,4.59,16.14,9.22,24.45,13.35C180.47,357.14,185.7,358.6,191.45,360.74Zm60.21-120.06c.08-1.66.2-3,.21-4.33q0-73.49,0-147c0-.64.23-1.42-.06-1.88-.56-.9-1.33-2.21-2.16-2.33a133.88,133.88,0,0,0-36.07-.27c-2.62.32-3.29,1.25-3.29,3.75q.09,74.28.06,148.55c0,1.1.17,2.19.27,3.3,7.11-.87,7.45-1.33,6-7.58-2-8.79,4.8-17.35,13.77-17.87,8.6-.5,18.07,8.62,14.8,19.5-1.23,4.1-.85,4.58,3.34,5.55C249.46,240.29,250.37,240.43,251.66,240.68Zm-122,82.42,1-.49V126.87c-18.86,17-44.83,57.61-40.08,110.69C93.54,270.62,107,299.12,129.71,323.09Zm201.59-.46,1.08.39c28.22-30.35,41.95-66.2,39.16-107.9-2.29-34.18-15.82-63.54-39.32-88.21l-.92.31ZM240,257.48c-.77,3.2-1.39,6.09-2.16,8.94-.7,2.58-.28,4.13,2.49,5.45,11.65,5.53,15.49,21.28,6.94,30.87-4.05,4.54-6.68,8.65-7.4,14.89-.82,7.16-9.7,9.63-15,4.81a9.77,9.77,0,0,1-3.09-8.65c.34-3.16-.52-5.26-3.42-7.33-10.83-7.7-10.48-25.35.32-32.85,2.08-1.44,5.23-2.55,5.89-4.5.73-2.14-.82-5.07-1.39-7.65-.11-.51-.38-1-.45-1.52-.3-2.29-1.49-2.68-3.55-2a35.67,35.67,0,0,0-19.94,15.86c-11.82,19.83-3.82,44.41,17.3,53.79,17.36,7.71,39,0,47.5-17,7.16-14.26,5.2-30.46-5.36-42.32C253.79,262.84,247.88,258.88,240,257.48Zm-29.51,88.33c0,6.2,0,11.89.07,17.56,0,.5,1,1.32,1.64,1.42a122.85,122.85,0,0,0,37.64,0,3.27,3.27,0,0,0,1.92-2.44c.2-4.34.11-8.69.1-13,0-3.47-.37-3.72-3.65-2.62a53.37,53.37,0,0,1-28.5,1.61C216.76,347.65,213.87,346.73,210.49,345.81Z"/>
  </g>
</svg>
