<svg width="2000" height="2000" xmlns="http://www.w3.org/2000/svg">
 <defs>
  <style>.path{fill:#fff;}</style>
 </defs>
 <title>My Cellar Logo</title>
 <g>
  <title>background</title>
  <rect fill="none" id="canvas_background" height="402" width="582" y="-1" x="-1"/>
 </g>
 <g>
  <title>Path</title>
  <path id="svg_1" d="m1757.92,1306.91c0,20.73 0,41.47 0,62.2c0,18 -9.86,31.43 -27.26,36.55c-49.95,14.68 -100,29.18 -150.91,44l0,4.65q0,105.27 0,210.55c0,16.43 -8.46,29.85 -22.15,35.42c-23.87,9.73 -48.78,-6.26 -50.23,-32.26c-0.11,-1.91 -0.08,-3.83 -0.08,-5.74l0,-196.76l-120.38,22.05l0,-184.87l370.83,0c0.04,1.44 0.18,2.84 0.18,4.21z" class="path"/>
  <path id="svg_2" d="m1757.51,439c1,23.38 0.25,46.83 0.25,70.62l-371,0l0,-183.62c7.89,1.11 15.56,2 23.18,3.27c109.6,17.88 217.06,44.61 322.79,78.38c14.92,4.76 24.11,15.79 24.78,31.35z" class="path"/>
  <path id="svg_3" d="m1757.72,582.91l0,171.67l-370.94,0l0,-171.67l370.94,0z" class="path"/>
  <path id="svg_4" d="m1757.61,1072.09l0,157.71l-370.86,0l0,-157.71l370.86,0z" class="path"/>
  <path id="svg_5" d="m1757.57,827.39l0,172l-370.75,0l0,-172l370.75,0z" class="path"/>
  <path id="svg_6" d="m1314.3,318.86q-0.11,94 -0.06,188c0,0.78 -0.13,1.57 -0.23,2.7l-610.74,0l0,-191.37c9.15,-1.23 18.24,-2.68 27.38,-3.58c44.57,-4.4 89.12,-9.21 133.74,-12.79q45.29,-3.65 90.78,-4.33c44.47,-0.71 89,-1.11 133.44,0.13c42.06,1.19 84.1,4.12 126.07,7.27c31.93,2.41 63.73,6.41 95.61,9.55c3.08,0.32 4.01,1.39 4.01,4.42z" class="path"/>
  <path id="svg_7" d="m1313.94,1302.76l0,194.6c-203.73,25.58 -407,25.42 -610.51,-3l0,-191.6l610.51,0z" class="path"/>
  <path id="svg_8" d="m1313.88,1072.13l0,157.69l-610.47,0l0,-157.69l610.47,0z" class="path"/>
  <path id="svg_9" d="m1313.83,827.54l0,171.94l-610.29,0l0,-171.94l610.29,0z" class="path"/>
  <path id="svg_10" d="m1313.77,582.7l0,171.86l-610.29,0l0,-171.86l610.29,0z" class="path"/>
  <path id="svg_11" d="m630.7,1072.05l0,157.75l-348.87,0l0,-84.94c-2,-0.11 -3.56,-0.25 -5.11,-0.25q-44.51,0 -89,0c-21.63,0 -42.23,4.29 -60.53,16.22a90.08,90.08 0 0 0 -16.73,14.76c-6.49,7 -9.07,15.77 -9,25.5c0.19,28.24 0.13,56.48 0.06,84.69c-0.08,18.68 -9.82,32 -26.65,36.95a35.8,35.8 0 0 1 -44,-23.89a24.42,24.42 0 0 1 -0.77,-6.59c0,-33.18 0.25,-66.35 -0.15,-99.53c-0.17,-14.66 3.6,-28.1 10.13,-40.82c15.87,-31 41.52,-51.12 72.9,-64.59a167.89,167.89 0 0 1 47.38,-12.67c4,-0.46 3.47,-2.81 3.47,-5.36q0,-51.2 0,-102.4a36,36 0 0 1 72,-0.65c0.4,30.13 0.11,60.29 0.13,90.44l0,15.39l394.74,-0.01z" class="path"/>
  <path id="svg_12" d="m630.7,827.41l0,172.05l-348.64,0l0,-172.05l348.64,0z" class="path"/>
  <path id="svg_13" d="m630.62,582.68l0,171.86l-348.48,0l0,-171.86l348.48,0z" class="path"/>
  <path id="svg_14" d="m630.6,1302.68l0,181.16c-32.7,-6.3 -65.15,-12.52 -98.19,-18.88l0,6.38q0,96.43 0,192.84c0,16.08 -6.24,28.68 -21.19,35.53c-24.24,11.08 -50.58,-5.78 -51.27,-32.45c0,-1.76 0,-3.5 0,-5.26l0,-213.53c-25.1,-6.68 -49.81,-12.86 -74.32,-19.83q-39.71,-11.31 -79.1,-23.83c-14.43,-4.58 -23.55,-15.24 -24.26,-30.13c-1.15,-23.85 -0.31,-47.78 -0.31,-72l348.64,0z" class="path"/>
  <path id="svg_15" d="m630.58,329.39l0,180.4l-348.79,0l0,-67.4c0,-16.27 9.82,-30.34 25.5,-34.86c49.56,-14.24 99.05,-28.83 148.94,-42c55.77,-14.65 112.4,-25.73 169.24,-35.53c1.53,-0.25 3.12,-0.37 5.11,-0.61z" class="path"/>
 </g>
</svg>