<svg id="Calque_1" data-name="Calque 1" xmlns="http://www.w3.org/2000/svg" viewBox="0 0 7155.75 1411.75">
  <defs>
    <style>
      .cls-1 {
        fill: #fff;
      }
      .cls-3 {
        isolation: isolate;
      }
    </style>
  </defs>
  <title>Barrels Logo</title>
  <path class="cls-1" d="M1728.45,1020.36v62.2c0,18-9.86,31.43-27.26,36.55-49.95,14.68-100,29.18-150.91,44v215.2c0,16.43-8.46,29.85-22.15,35.42-23.87,9.73-48.78-6.26-50.23-32.26-.11-1.91-.08-3.83-.08-5.74V1179l-120.4,22V1016.15h370.83C1728.32,1017.58,1728.45,1019,1728.45,1020.36Z" transform="translate(0.02 -5.37)"/>
  <path class="cls-1" d="M1728.05,152.43c1,23.38.25,46.83.25,70.62h-371V39.42c7.89,1.11,15.56,2,23.18,3.27,109.6,17.88,217.06,44.61,322.79,78.38C1718.19,125.86,1727.38,136.89,1728.05,152.43Z" transform="translate(0.02 -5.37)"/>
  <path class="cls-1" d="M1728.26,296.36V468H1357.32V296.36Z" transform="translate(0.02 -5.37)"/>
  <path class="cls-1" d="M1728.15,785.53V943.25H1357.28V785.53Z" transform="translate(0.02 -5.37)"/>
  <path class="cls-1" d="M1728.11,540.83v172H1357.36v-172Z" transform="translate(0.02 -5.37)"/>
  <path class="cls-1" d="M1284.84,32.3q-.11,94-.06,188c0,.78-.13,1.57-.23,2.7H673.81V31.63C683,30.4,692,28.95,701.19,28c44.57-4.4,89.12-9.21,133.74-12.79q45.29-3.65,90.78-4.33c44.47-.71,89-1.11,133.44.13,42.06,1.19,84.1,4.12,126.07,7.27,31.93,2.41,63.73,6.41,95.61,9.55C1283.9,28.2,1284.84,29.28,1284.84,32.3Z" transform="translate(0.02 -5.37)"/>
  <path class="cls-1" d="M1284.48,1016.2v194.6c-203.73,25.58-407,25.42-610.51-3V1016.2Z" transform="translate(0.02 -5.37)"/>
  <path class="cls-1" d="M1284.42,785.57V943.26H674V785.57Z" transform="translate(0.02 -5.37)"/>
  <path class="cls-1" d="M1284.36,541V712.92H674.08V541Z" transform="translate(0.02 -5.37)"/>
  <path class="cls-1" d="M1284.31,296.15V468H674V296.15Z" transform="translate(0.02 -5.37)"/>
  <path class="cls-1" d="M601.24,785.5V943.25H252.37v-85c-2-.11-3.56-.25-5.11-.25h-89c-21.63,0-42.23,4.29-60.53,16.22A90.08,90.08,0,0,0,81,889c-6.49,7-9.07,15.77-9,25.5.19,28.24.13,56.48.06,84.69-.08,18.68-9.82,32-26.65,37a35.8,35.8,0,0,1-44-23.89,24.42,24.42,0,0,1-.77-6.59c0-33.18.25-66.35-.15-99.53-.17-14.66,3.6-28.1,10.13-40.82,15.87-31,41.52-51.12,72.9-64.59A167.89,167.89,0,0,1,130.9,788c4-.46,3.47-2.81,3.47-5.36V680.29a36,36,0,1,1,72-.65c.4,30.13.11,60.29.13,90.44V785.5Z" transform="translate(0.02 -5.37)"/>
  <path class="cls-1" d="M601.24,540.85V712.9H252.6V540.85Z" transform="translate(0.02 -5.37)"/>
  <path class="cls-1" d="M601.16,296.13V468H252.67V296.13Z" transform="translate(0.02 -5.37)"/>
  <path class="cls-1" d="M601.14,1016.13v181.16c-32.7-6.3-65.15-12.52-98.19-18.88v6.38q0,96.43,0,192.84c0,16.08-6.24,28.68-21.19,35.53-24.24,11.08-50.58-5.78-51.27-32.45v-218.8c-25.1-6.68-49.81-12.86-74.32-19.83q-39.71-11.31-79.1-23.83c-14.43-4.58-23.55-15.24-24.26-30.13-1.15-23.85-.31-47.78-.31-72Z" transform="translate(0.02 -5.37)"/>
  <path class="cls-1" d="M601.12,42.83v180.4H252.33V155.84c0-16.27,9.82-30.34,25.5-34.86,49.56-14.24,99-28.83,148.94-42C482.54,64.33,539.17,53.24,596,43.46,597.56,43.19,599.13,43.08,601.12,42.83Z" transform="translate(0.02 -5.37)"/>
  <g class="cls-3">
    <path class="cls-1" d="M3053.87,1014.94q0,29.3-20.52,29.3h-97.27a28.75,28.75,0,0,1-19.33-7,26.23,26.23,0,0,1-9.37-17.58L2867,669.24q-7.62-66.21-11.42-130.67T2847,403.8l-5.86-83.2c0-1.56-.5-2.34-1.47-2.34s-1.66.59-2,1.77l-26.36,96.09q-8.2,29.3-18.17,58.59L2610.31,972.16q-2.93,8.81-11.72,16.42T2581,996.19h-92q-18.19,0-29.3-23.44-203.34-476.37-216.52-509.47t-23.14-63l-26.36-80.86c-.41-1.16-1.09-1.75-2.06-1.75s-1.66.78-2,2.34v94.92q0,124.22-10,253.7l-26.37,351q-1.17,9.38-10.84,17t-20.2,7.61h-80.86q-14.06,0-23.16-12.3t-7.31-29.89L2081.22,231q4.08-48.63,11.72-61.53Q2106.39,146,2142.15,146h63.28q28.69,0,39.84,7.63,20.48,13.48,35.73,51l252.55,615.23L2754.45,204q19.34-58,65.63-58h66.22q51.56,0,60.34,47.47,2.34,15.23,4.69,32.81l101.38,776.36A62.71,62.71,0,0,1,3053.87,1014.94Z" transform="translate(0.02 -5.37)"/>
    <path class="cls-1" d="M3716.93,383.3q37.5,0,37.5,36.91,0,42.8-44.53,189.27l-36.33,111.91q-128.32,368-318.16,605.86l-11.72,14.66q-27,34.55-55.08,34.56-29.91,0-69.14-41.59-11.16-11.72-11.14-27,0-24.61,26.36-51.86t48.64-54.48q22.27-27.26,42.19-54.8a874.9,874.9,0,0,0,65.63-104.87q-91.41-246.68-110.73-295.31l-63.87-158.8-45.11-102.53q-25.22-58.59-25.2-71.19t10.84-21.69q10.83-9.07,30.77-9.08h73.83q25.78,0,39.84,29.3,10.55,21.68,28.7,71.48,36.91,107.81,53.91,160l47.47,155.28q7,23.44,10.55,37.5l5.27,21.09q1.76,7,4.11,17.58l5.27,22.27q2.93,11.72,6.45,11.72c2.34,0,5-2.34,7.91-7a130.37,130.37,0,0,0,9.08-18.17l10-24.61q60.94-156.42,115.42-438.28,7-38.06,44-38.08Z" transform="translate(0.02 -5.37)"/>
    <path class="cls-1" d="M4549,336.43q0,72.66-64.45,72.66h-40.42q-18.75,0-29-13.77t-11.72-38.09a88.47,88.47,0,0,0-14.94-44.53,104,104,0,0,0-34.56-32.52q-39.28-22.85-104.31-22.86t-113.08,27.25a218.32,218.32,0,0,0-77.34,73q-56.25,85.55-56.25,228.52,0,257.23,167.58,323.44Q4222,929.4,4271.25,929.4q89.06,0,157-32.23l32.81-15.23q15.82-7,28.13-7t19.92,5.86q7.62,5.86,19,27.84t11.42,38.08q0,16.13-11.14,31.64a117.56,117.56,0,0,1-27.53,27.25q-28.71,18.75-69.14,31-73.83,22.27-172.56,22.27t-176.36-35.73q-77.65-35.74-130.37-99Q3844.1,795.21,3844.11,586q0-206.25,109.56-329.3,111.91-126.56,308.2-126.56,107.81,0,191,48Q4549,233.3,4549,336.43Z" transform="translate(0.02 -5.37)"/>
    <path class="cls-1" d="M4759.36,746l-.58,11.14q0,80.27,51,128.91,53.32,51.56,144.73,51.56,83.2,0,154.69-49.81,13.45-9.37,24-9.37,21.68,0,32.81,21.69l15.83,32.81a61,61,0,0,1,5.27,25.2q0,13.48-12,27.83T5143.73,1012a232.59,232.59,0,0,1-44.83,20.52,461.71,461.71,0,0,1-52.44,14.64,528.26,528.26,0,0,1-112.5,11.72q-58.59,0-118.06-22.27t-102.83-65q-93.19-90.82-93.17-245.52,0-271.27,191-337.5a376,376,0,0,1,122.75-20.5q63,0,107.23,13.48t76.47,39.83q68,55.69,68,155.28,0,97.85-79.69,149.41-69.75,45.14-184,45.13Q4851.36,771.19,4759.36,746ZM5047.64,574.9q0-83.77-112.5-83.78-107.23,0-150,78.52-15.23,27.54-19.92,68,50.39,25.2,128.33,25.19Q5047.62,662.79,5047.64,574.9Z" transform="translate(0.02 -5.37)"/>
    <path class="cls-1" d="M5480.08,883.1q0,41.63,29.3,41.61,9.38,0,24-5.28,27-9.94,32.81-10,13.45,0,21.09,17l18.16,41.61a44.36,44.36,0,0,1,3.52,16.41q0,13.48-22.27,32.81-44.53,36.91-116.59,36.91-131.25,0-131.25-175.19V43.46q0-15.82,9.38-27t22.27-11.14H5449q13.45,0,22.25,11.14t8.8,27Z" transform="translate(0.02 -5.37)"/>
    <path class="cls-1" d="M5856.28,883.1q0,41.63,29.3,41.61,9.38,0,24-5.28,27-9.94,32.81-10,13.45,0,21.09,17l18.16,41.61a44.36,44.36,0,0,1,3.52,16.41q0,13.48-22.27,32.81-44.53,36.91-116.59,36.91-131.25,0-131.25-175.19V43.46q0-15.82,9.38-27t22.27-11.14h78.52q13.45,0,22.25,11.14t8.8,27Z" transform="translate(0.02 -5.37)"/>
    <path class="cls-1" d="M6621,1013.18q0,31.08-30.47,31.06h-56.84q-22.85,0-27.53-9.08t-5.28-16.41q-.59-7.31-2.34-17.87-3.52-28.71-10-62.11-45.7,83.79-143.56,110.73-34.57,9.38-76.17,9.38a263.65,263.65,0,0,1-83.2-13.77,223,223,0,0,1-73.83-40.72q-72.66-60.94-72.66-160,0-108.37,79.69-165.81,65.63-46.29,168.75-46.3t174.61,60.36q1.76-19.92,1.77-49.8a162.66,162.66,0,0,0-11.72-59.77q-11.72-29.88-33.41-49.81Q6374.27,494,6294.58,494q-71.48,0-145.31,39.27-14.06,7.62-24.61,7.61-15.82,0-30.47-31-15.82-31.64-15.81-45.7,0-25.78,38.67-49.81,73.83-45.7,197.45-45.7,112.5,0,186.33,61.53,87.3,73.83,87.31,208.59,0,59.77-19.34,150.58Q6618.61,931.15,6621,1013.18ZM6228.37,764.46q-24,17.86-34.27,35.44t-10.25,41.31q0,23.74,8.48,42.19a84,84,0,0,0,23.73,30.77q32.23,25.2,72.36,25.19t65.92-9.37q25.78-9.37,44.53-24,40.43-31.64,40.44-66.8-3.52-43.95-48.64-69.14-40.43-23.44-95.5-23.44Q6252.38,746.58,6228.37,764.46Z" transform="translate(0.02 -5.37)"/>
    <path class="cls-1" d="M6751.06,425.49q0-42.19,36.91-42.19h31.64q32.23,0,45.7,28.13,19.34,41,28.13,113.08c0,.78.28,1.17.88,1.17s1.86-6.64,3.81-19.92,7.63-29.58,17-48.92,20.89-35.64,34.56-48.92q41.6-39.26,102-39.27,67.38,0,93.75,22.27,12.3,10,10,27.55L7146,492.29q-3.52,29.88-30.47,29.87-12.89,0-31.64-5.27-36.33-9.37-57.42-9.37T6981.92,526a174.47,174.47,0,0,0-40.44,46q-34.57,57.42-34.56,122.45v311.14q0,16.41-9.37,27.55t-27,11.13h-68q-18.75,0-28.42-11.12t-9.67-27.55V601.85q0-103.12-6.73-136.22T6751.06,425.49Z" transform="translate(0.02 -5.37)"/>
  </g>
</svg>
